<svg width="418.85595703125" height="113.33599853515625" xmlns="http://www.w3.org/2000/svg">
 <g>
  <title>Layer 1</title>
  <path fill="#ffffff" d="m214.766998,30.009003c9.061005,8.290009 13.588989,19.654999 13.588989,34.424988c0,14.77301 -4.417999,26.484009 -13.250977,35.091003c-8.830017,8.608002 -22.312012,12.936005 -40.436005,12.936005l-31.89502,0l0,-94.557983l32.983002,0c16.944,-0.001007 29.947021,3.813995 39.01001,12.105988zm-15.562988,56.173004c5.205994,-4.893982 7.812012,-12.020996 7.812012,-21.356995c0,-9.32901 -2.606018,-16.653015 -7.812012,-21.682007c-5.213013,-5.028992 -13.204987,-7.679993 -23.992004,-7.679993l-12.174988,0l0,58.085999l13.80899,0c9.692993,0 17.144989,-2.475006 22.358002,-7.367004z" id="svg_1"/>
  <path fill="#ffffff" d="m303.553986,112.459991l-18.911011,0l0,-9.044006c-5.402985,6.614014 -11.697998,9.920013 -19.444977,9.920013c-7.744995,0 -14.221008,-2.240021 -19.476013,-6.725006c-5.252991,-4.485016 -7.867981,-10.46701 -7.867981,-17.944c0,-7.473999 2.725983,-12.957001 8.16098,-16.674011c5.438019,-3.714996 12.875,-5.460999 22.299011,-5.460999l14.979004,0l0,-0.630981c0,-7.791016 -4,-11.688019 -12.242004,-11.688019c-3.537994,0 -7.209991,0.701996 -11.15802,2.104004c-3.937988,1.406006 -7.238983,3.147003 -9.958984,5.231995l-9.09201,-13.184998c9.604004,-6.977997 20.581024,-10.466003 32.903015,-10.466003c8.876984,0 15.945007,2.221008 21.570007,6.662018c5.612,4.437988 8.238983,11.460999 8.238983,21.065979l0,46.834015zm-20.261993,-28.070984l0,-2.997009l-12.670013,0c-8.151978,0 -12.229004,2.268005 -12.229004,7.343018c0,2.626984 0.969025,4.507996 2.91803,5.914001c1.946991,1.403992 4.735992,2.039978 8.362976,2.039978c3.625,0 6.76001,-1.145996 9.529999,-3.363983c2.758026,-2.221008 4.088013,-5.222015 4.088013,-8.936005z" id="svg_2"/>
  <path fill="#ffffff" d="m357.310974,57.075012c-6.070984,0 -10.880981,2.14801 -13.869995,6.451996c-2.988037,4.304993 -4.765015,9.988007 -4.765015,17.054016l0,31.878998l-20.261993,0l0,-72.945007l20.261993,0l0,9.260986c2.702026,-2.988983 6.388,-5.526978 10.325989,-7.610992c3.945007,-2.084991 8.585022,-3.171997 12.638,-3.264008l0,19.175018l-4.328979,0l0,-0.001007z" id="svg_3"/>
  <path fill="#ffffff" d="m394.060974,54.373993l0,32.187988c0,2.809998 0.828003,5.007996 2.278015,6.589996c1.445984,1.585999 3.222961,2.381012 5.213989,2.381012c3.809998,0 7.049988,-1.721008 9.674988,-5.166992l7.627991,14.270996c-6.346008,5.802002 -13.020996,8.697998 -20.037964,8.697998c-7.026001,0 -12.937012,-2.30899 -17.777039,-6.931c-4.852966,-4.619995 -7.242981,-10.916992 -7.242981,-18.894012l0,-69.608978l20.263977,0l0,20.261993l21.587036,0l-11.140015,16.209991l-10.447998,0l0,0.001007z" id="svg_4"/>
  <path fill="#00C4B3" d="m32.673004,32.662994l-7.089005,-7.09201l0.026993,51.234009l0.086014,2.391022c0.031998,1.131989 0.248993,2.40097 0.590988,3.71698l56.153992,19.804016l14.034027,-6.218018l0.010986,-0.019989l-63.813995,-63.81601z" id="svg_5"/>
  <path fill="#22D3C5" d="m26.289001,82.912994l0.005005,0c-0.005005,-0.020996 -0.013,-0.045013 -0.024002,-0.071014c0.011002,0.026031 0.011002,0.050018 0.018997,0.071014zm70.197998,13.56601m-0.01001,0.019989l-14.033997,6.217987l-56.14801,-19.803986c1.071014,4.117981 3.448013,8.748993 6,11.276001l18.321014,18.221008l40.756989,0.051971l5.115997,-15.981995l-0.011993,0.019012z" id="svg_6"/>
  <path fill="#0075C9" d="m25.774002,25.571014l-21.832001,32.971985c-1.811996,1.937012 -0.910004,5.931 2.009995,8.873016l12.604004,12.705994l7.921997,2.791016c-0.343002,-1.315002 -0.55899,-2.585022 -0.591003,-3.71701l-0.08699,-2.390991l-0.026001,-51.234007l0,0l0,-0.000002z" id="svg_7"/>
  <path fill="#0075C9" d="m82.904999,26.230011c-1.316986,-0.334015 -2.583984,-0.545013 -3.722992,-0.576996l-2.53302,-0.093018l-51.064987,0.011017l70.910995,70.90799l0.006012,0l6.229004,-14.049988l-19.825012,-56.199005z" id="svg_8"/>
  <path fill="#00A8E1" d="m82.838989,26.217987c0.02301,0.007996 0.046997,0.013 0.06601,0.019012l0,-0.006012c-0.02301,-0.004974 -0.042999,-0.004974 -0.06601,-0.013zm11.334015,6.028015c-2.578003,-2.596008 -7.141998,-4.95401 -11.268005,-6.01001l19.824005,56.192993l-6.229004,14.050018l-0.006012,0l15.218018,-4.862l0.031982,-41.722992l-17.570984,-17.64801z" id="svg_9"/>
  <path fill="#00C4B3" d="m80.123993,18.356995l-12.697998,-12.610001c-2.937012,-2.906998 -6.934006,-3.815002 -8.87001,-2.005997l-32.972,21.829987l51.065002,-0.010986l2.53299,0.092987c1.139008,0.032013 2.404999,0.243011 3.723022,0.576996l-2.781006,-7.872986zm-54.539993,7.21402" id="svg_10"/>
 </g>
</svg>